<svg fill="#f97316" height="200px" width="200px" version="1.1" id="Layer_1" xmlns="http://www.w3.org/2000/svg" xmlns:xlink="http://www.w3.org/1999/xlink" viewBox="0 0 512.005 512.005" xml:space="preserve"><g id="SVGRepo_bgCarrier" stroke-width="0"></g><g id="SVGRepo_tracerCarrier" stroke-linecap="round" stroke-linejoin="round"></g><g id="SVGRepo_iconCarrier"> <g> <g> <path d="M463.764,375.779c-9.426-54.802-57.177-96.504-114.668-96.504h-69.818V232.73h162.695 c38.68,0,70.028-31.359,70.028-70.028V70.03c0-38.669-31.348-70.028-70.028-70.028H70.028C31.365,0.002,0,31.367,0,70.03v92.672 c0,38.663,31.365,70.028,70.028,70.028h162.704v46.545h-69.818c-57.491,0-105.242,41.702-114.668,96.504 c-28,9.088-48.241,35.369-48.241,66.406c0,38.57,31.249,69.818,69.818,69.818s69.818-31.249,69.818-69.818 c0-29.479-18.263-54.662-44.088-64.905c8.064-29.648,35.161-51.459,67.361-51.459h69.818v50.532 c-27.118,9.583-46.545,35.426-46.545,65.832c0,38.57,31.249,69.818,69.818,69.818s69.818-31.249,69.818-69.818 c0-30.406-19.427-56.249-46.545-65.832V325.82h69.818c32.2,0,59.297,21.811,67.361,51.459 c-25.825,10.243-44.088,35.426-44.088,64.905c0,38.57,31.249,69.818,69.818,69.818s69.818-31.249,69.818-69.818 C512.005,411.148,491.764,384.867,463.764,375.779z M46.545,162.702V70.03c0-12.956,10.526-23.482,23.482-23.482h371.945 c12.97,0,23.482,10.516,23.482,23.482v92.672c0,12.966-10.512,23.482-23.482,23.482H70.028 C57.071,186.184,46.545,175.658,46.545,162.702z M69.823,465.457c-12.863,0-23.273-10.409-23.273-23.273 c0-12.863,10.41-23.273,23.273-23.273c12.863,0,23.273,10.41,23.273,23.273C93.096,455.047,82.686,465.457,69.823,465.457z M256.005,465.457c-12.863,0-23.273-10.409-23.273-23.273c0-12.863,10.41-23.273,23.273-23.273 c12.863,0,23.273,10.41,23.273,23.273C279.277,455.047,268.868,465.457,256.005,465.457z M442.186,465.457 c-12.863,0-23.273-10.409-23.273-23.273c0-12.863,10.41-23.273,23.273-23.273c12.863,0,23.273,10.41,23.273,23.273 C465.459,455.047,455.05,465.457,442.186,465.457z"></path> </g> </g> </g></svg>